<?xml version="1.0" encoding="utf-8"?>
<!-- Generator: Adobe Illustrator 26.0.3, SVG Export Plug-In . SVG Version: 6.00 Build 0)  -->
<svg version="1.0" id="Layer_1" xmlns="http://www.w3.org/2000/svg" xmlns:xlink="http://www.w3.org/1999/xlink" x="0px" y="0px"
	 viewBox="0 0 960.2 723.3" style="enable-background:new 0 0 960.2 723.3;" xml:space="preserve">
<style type="text/css">
	.st0{fill:#101C50;}
	.st1{fill:url(#SVGID_1_);}
</style>
<path class="st0" d="M447,431.2l0.9,0.1c6.5,0.9,12.9,2,17.7,4.2c4.2,1.7,7.6,4.9,9.6,9c3.7,7.4,3.9,16.1,0.6,23.6
	c-2.5,5.4-7.9,9.9-12.9,12.3c-5.1,2.4-10.5,3.9-16.1,4.4c-10.5,1-21-0.9-30.5-5.4c-5.4-2.6-12.1-7.2-15.4-13.1
	c-2.5-4.4-2.3-9.8,0.6-14c4.8-6.5,15-8,22.7-7.7c7.5,0.5,14.9,1.8,22,4c1.5,0.6,7.2,2.8,8.2,3.8c0.8,0.7,1.1,1.7,0.8,2.7
	c-1.3,3.9-10.8,6-13.5,6.4c-7.3,1.1-11.1-1.7-19.5-4.9c-2.2-0.9-4.6-1.6-6.9-1.9c-3.8-0.4-8.4,0.7-9.1,4.8c-0.4,2.1,2.1,4.1,4,5
	c3.9,1.8,8.2,2.7,12.5,2.7c13,0.2,27.6-1.9,38.2-9.5c1.5-1,2.9-2.6,2.9-4.5c0-3.9-6.7-6.2-6.7-6.2c-7.1-3-20.4-4.4-27.2-5
	c-7.1-0.6-18.4-1.5-21.1-2c-2.8-0.3-5.6-1-8.2-2c-2.6-1.2-4.6-3.5-5.5-6.2c-1.2-4.9,0.3-10.9,3-14.8c7.1-10.2,23.7-14.1,36.1-15.6
	c12-1.5,31.5-1.5,43.3,4.8c1.8,1,2.8,1.9,2.4,3.8c-0.8,3.4-3.4,6.2-6.9,7c-3.5,1.1-10.7,1.5-13.9,1.8c-14.2,0.8-31.4,0.4-45,4.1
	c-1.1,0.3-2.9,0.8-3.5,1.5c-2.1,2.3,3.9,3,5.2,3.2c0.3,0.1,0.6,0.1,0.9,0.2L447,431.2 M362.2,367.7c0,0,2.3-3.5,4.2-6.1
	c4.4-5.7,9.3-10.9,14.7-15.6c1.5-1.2,3.2-2.7,3.2-2.7s-2.7,0.3-4.2,0.6c-3.6,0.7-9,4.3-11.7,6.6c-4.4,3.8-9.3,9.9-7.1,15.4
	C361.7,366.7,362.2,367.7,362.2,367.7 M386.8,374.3c6.9-0.5,13.6-2.5,19.6-5.9c6-3.3,14.7-9.8,13.8-17.5c-0.2-2.3-1.7-4.4-3.9-5.3
	c-2.7-1.1-4-1-7.5,0c-2.1,0.5-4.1,1.4-5.9,2.5c-6.8,4-16.5,12.5-21.8,19.3c-1.2,1.6-2.5,3.4-3.4,4.6c-0.6,0.8-1.1,1.5-1,1.6
	C376.9,374.5,384.1,374.4,386.8,374.3 M369.1,387.3c-0.9,1.3-1.6,2.6-2.3,3.9c-0.5,0.8-1,1.4-1.7,2c-1.8,1.3-3.4,1.4-5.1-0.1
	c-2.5-2.3-3.9-5.5-4-8.8c0.1-1.4,0.1-2.8-0.1-4.2c-0.5-2-2.5-4.1-3.6-6.1c-1.4-2.8-2.2-5.8-2.5-8.9c-0.4-8,3.8-15.4,9.3-21.3
	c5.8-6.1,12.9-10.9,20.7-14.2c7.5-3.1,18.4-5.3,26.5-2.4c3.2,1.1,6,3,8.2,5.5c0.3,0.5,0.7,0.9,1.1,1.3c0.7,0.2,1.4,0.4,2.1,0.5
	c2.9,0.7,5.6,1.9,7.9,3.7c2.9,2.2,4.8,5.4,5.5,8.9c1.6,7.4-2.7,15.6-7.6,20.5c-8.3,8.5-16.6,14.5-27.2,18.7
	c-4.7,1.8-12,3.5-17.3,3.1c-1.6-0.1-3.4-0.6-5-0.7c-1.4-0.2-2.8-0.6-4.1-1.1C369.7,387.5,369.2,387.3,369.1,387.3 M378.6,403.8
	c0.4,0.1,0.9,0.2,1.3,0.4c3.7,1.4,5.3,4.9,6.2,8.7c2.1,8.8,3,28.4,3.4,36c0.3,5.7,0.4,11.4,0.6,17.1c0.2,4.8,0.6,11.2-0.4,15.7
	c-0.4,1.8-1.5,3.4-3,4.5c-1.8,1.1-5.8,1.2-8,0.8c-5.5-1.1-7.2-4.6-8-10.1c-1.9-12.9-1-38.3,0.1-49c0.4-3.5,1.7-14.9,3.5-19.6
	C375,406.6,376.4,403.3,378.6,403.8 M212.1,425.3c0,0-8.1,0.6-13.8,1.2c-7.1,0.8-20.6,3.1-28.3,5.9c-2.3,0.8-7,2.8-7.4,5.2
	s1.1,4.4,2.8,6.4c1,1.2,6.6,6.5,8.1,7.8c6.6,5.5,19.9,14,29.7,18c3.4,1.4,8.9,3.4,8.9,3.4s-0.4-15.9-0.3-31.5
	C211.9,433.5,212.1,425.3,212.1,425.3 M361.4,431.7c0.5,4.3-0.6,12.3-0.8,13.4c-0.6,3-1.4,5.9-2.5,8.8c-1.4,3.1-2.9,6.1-4.5,9.1
	c-3.5,5.8-7.8,11.1-12.8,15.7c-14,12.1-35.7,19-54.4,21.3c-13.5,1.6-27.2,1.2-40.6-1.2c-4.6-0.8-11.5-2.4-11.5-2.4s0,2.7-0.2,4.7
	c-0.2,1.4-0.6,2.7-1.1,3.9c-0.9,1.9-2.8,3.2-4.9,3.5c-2.8,0.5-5.8,0.7-8.4-0.4c-4.3-1.8-5.8-5.8-6.5-10.4
	c-0.6-3.7-1.2-10.1-1.2-10.1s-3.2-1.5-5.8-2.8c-7.9-3.9-15.5-8.6-22.7-13.9c-1.9-1.4-9.9-8.2-11.7-9.8c-5-4.7-9.5-9.5-12.9-15.5
	c-2.7-4.7-3.4-8.9-1.4-13.9c2.8-7,12.8-12.2,19.6-15.2c5-2.2,20.7-7.3,27.2-8.3c3.1-0.4,7.8-1.3,8.1-1.5c0.1-0.1,0.2-0.2,0.3-0.3
	c0.1-0.2,0.4-7.1,0.4-9.6c-0.1-2.5,1.8-18.8,2.4-22.3c0.3-1.9,1.7-9.1,3.2-10.9c0.9-1.3,2.6-1.2,4-0.3c7.4,4.6,9.7,20.7,10.3,28.9
	c0.3,5,0.5,12.5,0.5,12.5s8.6-0.2,13.8-0.1c5.4,0.2,10.7,0.8,16,1.8c6.8,1.1,20,4,27.6,7.8c6.2,3.2,12.1,8.5,14,14.1
	c1.8,5.2,1.5,8.8-1.2,13.4c-3,5.3-8.7,9.2-14.5,9.5c-1.7,0.1-8.2-0.8-10.2-2.3c-0.7-0.6-0.8-1.7-0.2-2.5c0.2-0.3,3.2-1.9,5-2.8
	c0.8-0.5,1.6-1,2.3-1.6c1.5-1.3,2.8-2.8,2.7-4.4c-0.2-2.2-2.5-3.5-4.7-4.4c-10.4-4.1-31-7.5-41-8.1c-3.9-0.2-9.5-0.4-9.5-0.4
	l1.2,55.2c0,0,4.6,0.9,8.2,1.5c2.1,0.3,10.9,1.1,13.2,1.2c17.8,0.5,37.8-1.1,54.1-8.9c7.2-3.4,13.8-7.6,18.8-13.3
	c6.8-7.9,10.1-18.3,9.1-28.6c-1-11.8-9.3-25.8-15.9-34.3c-17.5-22.5-47.5-41-73.8-51.8c-26.9-11.1-53.5-17.4-82.1-18.5
	c-7.4-0.3-23.4,0.1-31.6,2.3c-1.2,0.3-2.3,0.7-3.4,1c-0.9,0.2-1.8,0.6-2.6,1.1c-0.2,0.2-0.4,0.4-0.4,0.4s0.5,0.3,1,0.5
	c0.9,0.4,4.5,0.6,6.4,1c1.6,0.2,3.1,1.1,4.1,2.4c0.7,0.9,0.7,2.2-0.1,3.1c-1.9,2.2-8.8,1.8-11.8,1.3c-3-0.5-7.1-1.5-7.8-4.2
	c-0.8-3.2,0.7-6.4,2.4-9.4c3.3-5.9,8.2-9,15.2-10.9c10.5-2.8,21.2-4.5,32-5c21.3-0.8,41.5,2.9,62.2,9.2c13.2,4.1,26.1,9.1,38.6,15
	c9.7,4.8,19.1,10.1,28.2,15.8c2.3,1.5,15.6,11.3,17.6,13c4.3,3.5,9.9,8.6,14,12.6c7.9,7.8,17.7,19.8,22.5,29.3
	c1.1,2.3,2,4.5,3.5,7.2c1.2,2.6,2.2,5.2,3,7.9c0.4,1.5,0.9,3.8,1,3.9C360.6,425.2,361.6,429.9,361.4,431.7 M629.6,419.4
	c-10,2.3-36.3,3.6-36.3,3.6l-3.3,10.4c0,0,13.1-1.1,22.7-0.1c0,0,3.1-0.4,3.5,3.5c0.1,2.5,0,5-0.3,7.5c0,0-0.2,2.3-3.5,2.9
	c-3.6,0.6-28.3,1.5-28.3,1.5l-4,13.5c0,0-1.5,3.1,1.9,2.2c3.1-0.8,29-5.7,32.3-5c3.6,0.9,7.6,5.7,6.5,10.1
	c-1.4,5.4-27.2,21.9-42.9,20.8c0,0-8.3,0.5-15.2-10.6C556,469.1,565,449,565,449s-4.1-9.4-1.1-12.6c0,0,1.8-1.6,7-2l6.3-13
	c0,0-7.2,0.5-11.5-4.8c-4-5-4.3-7.3-1.3-8.7c3.3-1.6,33.3-7.1,54-6.4c0,0,7.2-0.7,13.4,11.8C631.8,413.2,634.8,418.2,629.6,419.4
	 M551.9,469.8c-2.7,6.2-9.6,12.9-18.3,8.8c-8.7-4.1-22.2-32.1-22.2-32.1s-5.2-10.4-6.2-10.2c0,0-1.1-2-1.8,9.4s0.1,33.5-4.4,37
	c-4.3,3.5-9.5,2.1-12.2-2c-2.5-4-3.5-13.6-2.1-30.3c1.6-16.8,5.5-34.7,10.5-40.3s9-1.5,10.5,0c0,0,6.7,6,17.6,23.8l1.9,3.3
	c0,0,10,16.8,11,16.7c0,0,0.8,0.8,1.5,0.2c1-0.3,0.6-5.7,0.6-5.7s-2.1-18.2-11.2-49.1c-0.8-2.4-1-5-0.5-7.5c0.9-3.6,4.6-1.9,4.6-1.9
	s14.1,7.1,21,30.1S554.6,463.5,551.9,469.8 M703.8,456c-6.4,11.2-24.5,34.6-48.7,29.1c-8,19.3-14.7,38.8-18.5,68.1
	c0,0-0.8,5.7-5.6,3.7c-4.7-1.6-12.4-9.4-13.9-20.2c-1.7-14.1,4.6-38,17.5-65.4c-3.8-6.1-6.3-14.8-4.1-27.2c0,0,3.2-23,26.4-43.8
	c0,0,2.8-2.4,4.4-1.7c1.8,0.8,1,8.2-0.5,11.9S649.1,432,649.1,432s-6.4,12-4.6,21.5c12.1-18.6,39.7-56.3,56.8-44.4
	c5.7,4.1,8.4,13,8.4,22.7C709.7,440.3,707.7,449.3,703.8,456 M698.9,426.5c0,0-1-7.4-8.2,0.8c-6.2,6.9-17.5,19.8-26.5,37.4
	c9.5-1.1,18.7-6.2,21.4-8.8C690.1,451.7,700.6,440.9,698.9,426.5 M836.7,424.8h-44.2c-0.9-15-2.7-29.9-5.5-44.7
	c-0.3-1.6-1.6-2.7-3.2-2.7h-10.2c-1.7,0-3,1.4-3,3c0,0.2,0,0.4,0.1,0.6c2.9,14.5,4.8,29.1,5.6,43.8h-42.5c-2,0-3.6,1.6-3.6,3.6v9.2
	c0,2,1.6,3.6,3.6,3.6h43.1c0,2.3,0,4.3,0,6.2c0.1,12.2-0.6,24.4-1.9,36.5c-0.2,1.8,1.1,3.5,3,3.7c0.1,0,0.2,0,0.3,0h9.5
	c1.8,0,3.4-1.4,3.6-3.2c1.3-12.3,1.9-24.6,1.9-36.9c0-1.9,0-3.9,0-6.2h43.6c2,0,3.6-1.6,3.6-3.6v-9.2
	C840.3,426.4,838.7,424.8,836.7,424.8"/>
<linearGradient id="SVGID_1_" gradientUnits="userSpaceOnUse" x1="805.0671" y1="169.64" x2="271.3658" y2="97.4812" gradientTransform="matrix(1 0 0 1 -14.88 122.67)">
	<stop  offset="0" style="stop-color:#101C50"/>
	<stop  offset="0.24" style="stop-color:#0D267A"/>
	<stop  offset="0.5" style="stop-color:#085AA4"/>
	<stop  offset="0.65" style="stop-color:#058BBF"/>
	<stop  offset="1" style="stop-color:#B1FFFF"/>
</linearGradient>
<path class="st1" d="M245.8,301.7c-0.6,0.9-0.8,2.1-0.4,3.2c0.4,1.1,1.2,1.9,2.2,2.2l7.9,2.7c0.5,0.1,0.9,0.2,1.4,0.2
	c1.5,0,2.9-0.8,3.7-2c53.7-79,143-126.3,238.5-126.3c115.9,0,220.5,69.4,265.6,176.1c0.7,1.5,2.2,2.5,3.8,2.5h9.5
	c1.8,0,3.3-1.5,3.3-3.3c0-0.4-0.1-0.8-0.2-1.2c-63.3-155.7-241-230.6-396.7-167.3C328,211.4,279.7,250.9,245.8,301.7"/>
</svg>
